<svg viewBox="0 0 107.93 100" xmlns="http://www.w3.org/2000/svg"><g fill="#fff"><path d="m76.91 6.67a11.54 11.54 0 0 0 -3.11-4.13 11.2 11.2 0 0 0 -12.38-1.21 10.88 10.88 0 0 0 -5.76 9.39h4.69.09l.09.05a1.22 1.22 0 0 0 .28.13 1 1 0 0 1 .77.72v.19l-.16.12c-.41.31-.85.61-1.34.92-1.86 1.22-3.78 2.48-3.48 4.8l5.1 31.95 14.08-31.66c1.67-2.94 2.96-7.59 1.13-11.27z"/><path d="m45.08 1a11.09 11.09 0 0 0 -14.83 13.54c.19.44 14.69 32.81 14.69 32.81l1.12 2.24c.82-5.23 5.75-36.85 5.75-36.85a11.16 11.16 0 0 0 -1.41-7.18 11.84 11.84 0 0 0 -5.32-4.56z"/><path d="m98.2 21.4a11.17 11.17 0 0 0 -19.69-.23s-16.15 36.45-16.13 36.43l-.07.18 29.79-20.44c.48-.36 1-.73 1.5-1.06a12.58 12.58 0 0 0 4-3.61 11.21 11.21 0 0 0 .6-11.27z"/><path d="m15.18 16.18a11.4 11.4 0 0 0 -6.67 7.39 10.87 10.87 0 0 0 3.57 11.32l33.36 23-16.44-36.72a11.3 11.3 0 0 0 -13.82-4.99z" fill-rule="evenodd"/><path d="m107 47.51a11.55 11.55 0 0 0 -5.79-5.72 11.33 11.33 0 0 0 -10.37.69l-29.44 20.52h35.16a11.17 11.17 0 0 0 9.12-4.29 11.28 11.28 0 0 0 1.32-11.2z"/><path d="m6.52 42.37a11.41 11.41 0 0 0 -5.65 5.57 11 11 0 0 0 1.32 10.83 10.87 10.87 0 0 0 8.88 4.23h34.16l-28.63-20a11 11 0 0 0 -10.08-.63z"/><path d="m31 91.71-18-23.87h-5.54v31.27h4.94v-23.87l18 23.87h5.5v-31.27h-4.9zm33.57-9.41a8 8 0 0 0 2.2-5.82 8.55 8.55 0 0 0 -8.77-8.64h-18.7v31.27h19c2.12 0 9.67-1.13 9.67-9.4a8.8 8.8 0 0 0 -3.4-7.41zm-20.33-9.51h13.76a3.65 3.65 0 0 1 3.92 3.69c0 3.06-2.85 3.7-3.92 3.7h-13.76zm14 21.42h-14v-9.13h14c.82 0 4.77.23 4.77 4.63-.01 4.14-3.63 4.5-4.75 4.5zm39.57-3.27c-4 3.4-7 4.16-10.65 4.16-6.69 0-12.42-5-12.42-11.62s5.74-11.58 12.49-11.54a12.67 12.67 0 0 1 9.08 3.72l3.45-3.5a18.25 18.25 0 0 0 -12.58-5.16c-9.5 0-17.32 7.31-17.36 16.47s7.67 16.53 17.4 16.53c5.49 0 9.45-1.58 13.83-5.34z"/></g></svg>