<svg viewBox="0 0 380 123.09" xmlns="http://www.w3.org/2000/svg"><g fill="#fff"><path d="m0 51v-14.26h9.59v13.26c0 1.69.48 2.66 1.85 2.66s1.86-1 1.86-3.06v-7.6c0-2.9-.33-3.95-2.58-6.53l-5.4-5.64a16.09 16.09 0 0 1 -5-12.4v-7.1c0-6.54 3.39-10.33 10.68-10.33h2.09c7.38 0 9.91 3.55 9.91 9.27v11.84h-9.38v-11c0-1.37-.41-2.17-1.69-2.17s-1.7.72-1.7 2.41v6.61c0 2.34.49 3.47 2.42 5.72l5.48 5.64c4.11 4.19 5.48 7.09 5.48 12.9v8c0 7.34-3.46 11.93-11 11.93h-2.13c-6.93-.07-10.48-3.54-10.48-10.15z"/><path d="m38.6 49.56h-4.84l-.76 10.95h-8.51l5.89-59.95h12.08l6.37 60h-9.51zm-2.42-34.33-1.85 25.46h3.67z"/><path d="m52.21 9.59h-5.8v-9h21.28v9h-5.81v50.92h-9.67z"/><path d="m80.74 61.16c-7.9 0-11-4.75-11-11.44v-49.16h10v48.67c0 1.7.57 2.66 1.77 2.66 1.37 0 1.86-1 1.86-2.66v-48.67h10v49.16c0 6.52-3.47 11.44-11 11.44z"/><path d="m105.8 60.51h-9.75v-59.95h15.39c4.59 0 7.49 2.42 7.49 8v12.71c0 4.43-2.09 6.21-3.79 6.93a6.1 6.1 0 0 1 3.87 6v22.61a7.47 7.47 0 0 0 .65 3.38v.32h-9.66a5.81 5.81 0 0 1 -.73-3.46v-20.71c0-1.53-.32-2.34-2-2.34h-1.47zm0-35h1.45c1.53 0 2-1 2-2.49v-12.3c0-1.61-.32-2.34-1.93-2.34h-1.52z"/><path d="m121.67.56h14.33c5.72 0 8.79 3.15 8.79 9.75v40c0 6.69-3.07 10.23-8.71 10.23h-14.41zm9.59 51.44h1.45c1.69 0 2.17-1 2.17-3.06v-37.18c0-2.17-.48-3-2-3h-1.61z"/><path d="m159.86 49.56h-4.86l-.81 10.95h-8.46l5.91-59.95h12.09l6.37 60h-9.51zm-2.41-34.33-1.86 25.46h3.63z"/><path d="m173.88 36.34-7.25-35.78h9.59l2.78 22.49 2.7-22.49h8.7l-6.77 35.86v24.09h-9.75z"/><path d="m197.09 62.49 5.48 33v-33h8.43v60h-8.62l-6.38-36.15v36.1h-8.38v-59.95z"/><path d="m223.44 122.44h-9.75v-59.95h9.75z"/><path d="m234.32 123.09c-5.32 0-8.22-4.68-8.22-10.32v-39.48c0-6.05 2.66-11.36 11-11.36h1.53c8.78 0 10.63 5.39 10.63 11.12v10.55h-9.5v-10.55c0-1.62-.41-2.58-1.86-2.58-1.29 0-1.77 1-1.77 2.58v38.59c0 1.86.72 2.82 2 2.82 1.45 0 2.26-1 2.26-2.66v-16.8h-2.5v-8.34h11.77v35.78h-6.21c-.16-.64-.72-3.14-1.21-4.59-1.12 2-3.62 5.24-7.49 5.24z"/><path d="m252.2 62.49h9.8v23.61h3.79v-23.61h9.75v60h-9.75v-26.24h-3.79v26.19h-9.8z"/><path d="m283.47 71.51h-5.8v-9h21.27v9h-5.8v50.93h-9.67z"/><path d="m312.48.56v50.53h8.3v9.42h-18v-59.95z"/><path d="m332.7 60.51h-9.7v-59.95h9.75z"/><path d="m334.15.56h10.32l2.9 44 2.9-44h9.34l-6.2 60h-12.65z"/><path d="m379.68.56v9h-9v15h7.32v9.34h-7.34v17.35h9.34v9.26h-18.94v-59.95z"/></g></svg>