<svg viewBox="0 0 600 248.73" xmlns="http://www.w3.org/2000/svg"><path d="m137.75 41.83h-19.83l16.18-41.83h-22l-22.57 58.52h41.79zm15.53 16.69 4.9-7.77h16.82l-1.11 7.77h22.87l4.55-58.52h-28.22l-40.7 58.52zm26.2-41-2.69 18.66h-9.21zm47.22 41 16.09-41.82h14.21l6.54-16.7h-50.54l-6.52 16.7h14.23l-16.06 41.82zm62.36 0 6.41-16.61h-23.37l2.14-5.4h17.44l5.69-14.9h-17.44l2-5h22.07l6.43-16.61h-43.93l-22.61 58.52zm-229.27 4.48-10 26-3-26h-24.18l-22.61 58.56h19.5l11.83-30.7 4.7 30.7h20.57l22.6-58.56zm23.86 0-22.65 58.56h22.17l22.61-58.56zm78.48 25.21h-29.37l-5.16 13.29h8.4c-1.65 2.54-4.13 4.75-10 4.75-6.09 0-8-3.68-6.64-9.49 2.06-9.09 7.68-17.52 15.25-17.52 5.27 0 6.25 2.54 5.72 6h21.72c3.56-16.64-7.05-23.19-22.05-23.19a44.39 44.39 0 0 0 -43 34.54c-3.56 15.64 4.92 26.11 23.84 26.11s32.16-11.05 37.16-23.7zm49.31-25.21-7.81 20.22h-13.41l7.78-20.22h-22l-22.6 58.53h22l8.29-21.53h13.41l-8.27 21.53h21.88l22.61-58.53zm39.09 58.53 16.1-41.83h14.23l6.51-16.7h-50.51l-6.51 16.7h14.23l-16.09 41.83zm30.67 44c-3.24 13.51 4.63 20.14 21.17 20.14 17.56-.16 29-8.84 31.91-21.69 2.44-10.72-4.06-15.39-17-17.6-4.28-.74-5.74-1.56-5.33-3.36s2.12-2.78 4.67-2.78c3 0 3.76 1.56 3.31 4.26h20.27c3.33-13.59-3.9-19.4-19-19.4-16.53 0-28.29 9-31 21.12-2.29 10.07 1.8 15.22 16.57 17.92 4.11.74 5.71 1.64 5.34 3.28-.48 2.12-2.1 3.11-5.31 3.11-4.69 0-5.59-2.21-5-5zm48.33 19h45.16l6.41-16.61h-23.36l2.14-5.41h17.44l5.68-14.87h-17.43l2-5h22.12l6.38-16.64h-43.93zm77.71-41.82-16.09 41.82h22l16.1-41.82h14.23l6.52-16.71h-50.48l-6.52 16.73zm44.95 41.82 8.27-21.53h13.41l-8.27 21.52h21.88l22.61-58.52h-21.88l-7.81 20.22h-13.4l7.8-20.22h-22l-22.6 58.52zm-135.86 4.51-17.09 23.41 1.38-23.41h-27.31l-22.61 58.54h19.41l12-31.1-.82 31.1h7.41l23.69-31.1-12 31.1h21.8l22.61-58.52zm70.42 16.62 6.42-16.62h-43.93l-22.61 58.52h45.16l6.41-16.56h-23.36l2.14-5.4h17.44l5.69-14.9h-17.44l2-5zm45-16.62-13.4 15.88-1.16-15.88h-23.09l5.84 33.64-9.53 24.88h22l9.39-24.3 31.31-34.22zm28.7 41.96 2.13-5.4h17.42l5.69-14.9h-17.42l2-5h22.13l6.41-16.62h-43.97l-22.61 58.52h45.17l6.41-16.6zm87-24.4c2.38-10.47-3.09-17.51-19.54-17.51h-24.91l-22.61 58.52h21.8l7.11-18.61h2.13l2.2 18.58h21.88l-3.25-23.32a23.77 23.77 0 0 0 15.21-17.69zm-22 3.12c-.93 4.09-3.75 5.64-7.45 5.64h-3.37l3.85-10.06h2.63c3.62-.03 5 1.52 4.34 4.39zm73.75-2.13c3.34-13.59-3.9-19.4-19-19.4-16.54 0-28.3 9-31 21.12-2.29 10.07 1.8 15.22 16.57 17.92 4.11.74 5.72 1.64 5.34 3.28-.48 2.12-2.1 3.11-5.31 3.11-4.69 0-5.58-2.21-5-5h-20.6c-3.23 13.5 4.64 20.13 21.17 20.13 17.56-.16 29-8.84 31.92-21.69 2.44-10.72-4.07-15.39-17.06-17.6-4.27-.73-5.73-1.55-5.32-3.35s2.11-2.79 4.66-2.79c3 0 3.76 1.56 3.31 4.26zm-277.71-95.4 2.59-11.73h-6.59l-7 11.59 3.06-11.59h-7.95l-4.16 21.08h7.92l7.17-11.14-2.31 11.14h7.59l13.94-21.08h-7.15zm15 9.35 9.05-21.08h-7.92l-9.05 21.08zm13.83-15.07-6.44 15.07h7.89l6.45-15.07h5.09l2.61-6h-18.08l-2.6 6zm16.68 15.07 3.31-7.75h4.8l-3.31 7.75h7.83l9.05-21.08h-7.88l-3.13 7.28h-4.8l3.13-7.28h-7.87l-9.05 21.08zm-43.38-121.54-94.52 248.73h8.12l94.52-248.73z" fill="#fff"/></svg>