<svg viewBox="0 0 438.43 166.45" xmlns="http://www.w3.org/2000/svg"><g fill="#fff"><path d="m0 34.15h3.92l4-9h18.45l4 9h4.11l-15.48-34.15h-3.57zm9.43-12.4 7.75-17.29 7.69 17.29z"/><path d="m47.9 34.15h22.88v-3.54h-19.06v-30.37h-3.82z"/><path d="m75.28 34.15h3.83v-33.91h-3.83z"/><path d="m95.07 34.15h3.87v-30.37h11.37v-3.54h-26.61v3.54h11.37z"/><path d="m125.46 34.15h3.87v-30.37h11.37v-3.54h-26.61v3.54h11.37z"/><path d="m145 34.15h22.89v-3.54h-19.11v-30.37h-3.78z"/><path d="m172 34.15h24.72v-3.49h-20.9v-11.87h18.48v-3.48h-18.48v-11.58h20.66v-3.49h-24.48z"/><path d="m.41 100.14h41.78v-9.55h-31.32v-50.09h-10.46z"/><path d="m48 100.14h10.7l6.13-14.4h28.17l6 14.4h11.1l-26.21-60.07h-9.7zm20.66-23.69 10.21-23.85 10.3 23.85z"/><path d="m115.38 100.14h10.55v-49.93h18.89v-9.71h-48.34v9.71h18.9z"/><path d="m152.48 100.14h44.59v-9.37h-34.07v-16h29.87v-9.39h-29.87v-15.51h33.7v-9.37h-44.22z"/><path d="m224.21 100.14h41.79v-9.55h-31.33v-50.09h-10.46z"/><path d="m272.37 100.14h10.47v-59.64h-10.47z"/><path d="m290.24 100.14h41.76v-9.55h-31.29v-50.09h-10.47z"/><path d="m337.81 100.14h41.79v-9.55h-31.32v-50.09h-10.47z"/><path d="m386.75 100.14h10.55v-23.77l23.7-35.87h-12l-16.89 26.41-16.68-26.41h-12.34l23.66 36.12z"/><path d="m223.46 166.27c12.51 0 21.28-6.64 21.28-17.8v-.17c0-9.88-6.56-14.4-19.15-17.47-11.4-2.72-14.13-4.77-14.13-9.37v-.17c0-3.92 3.58-7.07 9.7-7.07 5.45 0 10.81 2.13 16.17 6.13l5.62-7.92a33 33 0 0 0 -21.61-7.5c-11.83 0-20.34 7.07-20.34 17.3v.17c0 11 7.14 14.74 19.82 17.8 11.07 2.56 13.45 4.86 13.45 9.12v.17c0 4.52-4.08 7.5-10.55 7.5-7.41 0-13.11-2.81-18.81-7.75l-6.3 7.49a36.68 36.68 0 0 0 24.85 9.54z"/><path d="m250.87 165.42h10.46v-59.63h-10.46z"/><path d="m268.74 165.42h10.26v-42.42l32.85 42.43h8.77v-59.64h-10.3v41.21l-31.91-41.23h-9.7z"/><path d="m357.41 166.45a37.94 37.94 0 0 0 24.85-9.29v-25h-25.36v9.12h15.23v11.16a24.33 24.33 0 0 1 -14.38 4.51c-12.17 0-20.25-9-20.25-21.3v-.17c0-11.41 8.34-21 19.32-21 7.57 0 12.08 2.47 16.67 6.39l6.64-7.92c-6.12-5.2-12.51-8.1-22.89-8.1-18 0-30.72 14.15-30.72 30.84v.17c0 17.29 12.25 30.59 30.89 30.59z"/><path d="m389.07 165.42h10.47v-25.13h28.46v25.13h10.47v-59.63h-10.47v24.79h-28.46v-24.79h-10.47z"/><path d="m218.79 94.82v-2.35l-11.11-3.8 11.11-3.81v-2.34l-15.58-5.4v2.88l11.47 3.69-11.51 3.8v2.3l11.51 3.81-11.47 3.69v2.94z"/><path d="m218.68 74.62v-2.72h-15.47v2.72z"/><path d="m218.68 64v-2.78h-13v-4.91h-2.52v12.56h2.52v-4.87z"/><path d="m218.68 53.43v-2.72h-6.52v-7.39h6.52v-2.72h-15.47v2.72h6.43v7.39h-6.43v2.72z"/></g></svg>