<?xml version="1.0" encoding="utf-8"?>
<!-- Generator: Adobe Illustrator 22.1.0, SVG Export Plug-In . SVG Version: 6.00 Build 0)  -->
<svg version="1.1" id="Layer_1" xmlns="http://www.w3.org/2000/svg" xmlns:xlink="http://www.w3.org/1999/xlink" x="0px" y="0px"
	 viewBox="0 0 254.3 310" style="enable-background:new 0 0 254.3 310;" xml:space="preserve">
<style type="text/css">
	.st0{fill:#DC0BBB;}
</style>
<g>
	<g>
		<g>
			<path class="st0" d="M2.6,0v252.4h135.5c18.1-3,26.7-15.1,26.8-15.3c0.9-0.8,1.8-1.6,2.6-2.4c1.2-1.3,2.3-2.6,3.3-4.1h-0.3
				c7.1-9.9,10.7-24.1,10.7-42.7V72c-5.4-1.7-12.1-3.3-19.9-4.8c-3.9-0.8-7.9-1.3-12.1-1.7c-4-0.4-8.2-0.6-12.5-0.6
				c-1.1,0-2.2,0-3.3,0.1c-1.1,0-2.2,0.1-3.3,0.2c-6.5,0.6-12.5,2.1-17.9,4.5c-7.1,3.3-13.1,7.8-18,13.6c-4.9,5.8-8.7,12.8-11.2,21
				c-2.6,8.2-3.9,17.1-3.9,26.8c0,10.4,1.2,19.6,3.6,27.5c2.4,7.9,5.8,14.5,10.1,19.8c4.4,5.3,9.6,9.3,15.7,12
				c5.4,2.4,11.4,3.8,17.8,4c0.9,0,1.8,0,2.8,0c1.2,0,2.5,0,3.7-0.1c4-0.3,7.5-1,10.8-2.1c4.4-1.6,7.9-3.1,10.6-4.6v5.1
				c0,2.7-0.2,5.7-0.4,8.7c-0.7,8.6-2.7,17.8-6.1,21.6c-4.6,5.1-12.2,7.7-22.9,7.7c-3.3,0-20.4,0-37.4,0c-18.2,0-63.3,0-63.3,0V21.8
				h208.7v229.9h21.1V0H2.6z M145.3,166.9c-2.8,1-5.8,1.6-8.9,1.9c-0.9,0.1-1.9,0.1-2.8,0.1c-1,0-1.9,0-2.9-0.1
				c-6.7-0.6-12.2-3.6-16.6-8.9c-5-6-7.5-15.6-7.5-28.8c0-12.1,2.6-21.9,7.8-29.3c4.6-6.6,11-10.2,19.1-10.9
				c1.1-0.1,2.3-0.2,3.5-0.2c2,0,3.8,0,5.5,0.2c1.8,0.1,3.4,0.2,4.8,0.4c2.7,0.4,5.1,0.9,7.1,1.4v69.3
				C152.1,163.9,149.1,165.6,145.3,166.9z"/>
		</g>
	</g>
	<g>
		<path class="st0" d="M27.7,291.2v15.6c-2.9,2.1-6.6,3.2-11.1,3.2c-4.9,0-9-1.4-12-4.3C1.5,302.9,0,299,0,294.1
			c0-4.8,1.6-8.7,4.8-11.6c3.2-2.9,7.3-4.3,12.2-4.3c3.5,0,6.5,0.6,9,1.9v7c-2.9-1.7-5.9-2.5-9-2.5c-2.9,0-5.2,0.9-6.9,2.6
			c-1.7,1.7-2.6,4-2.6,6.9c0,2.9,0.8,5.2,2.5,6.9c1.7,1.7,4,2.6,6.9,2.6c1.3,0,2.6-0.2,3.9-0.6v-5.8h-5v-6H27.7z"/>
		<path class="st0" d="M35,309.6v-30.8h7v30.8H35z"/>
		<path class="st0" d="M65.5,309.6l-6.7-10.7h-2.1v10.7h-7v-30.8h10.7c3.4,0,6.2,0.9,8.3,2.7c2.1,1.8,3.1,4.2,3.1,7.1
			c0,4.4-1.9,7.4-5.6,9.1l7.8,11.8H65.5z M56.7,284.5v8.7H60c3,0,4.6-1.5,4.6-4.5c0-1.3-0.4-2.3-1.2-3.1c-0.8-0.7-1.9-1.1-3.2-1.1
			H56.7z"/>
		<path class="st0" d="M98.9,309.6l-1.9-6.3H86.2l-1.9,6.3H77l10.3-30.8h8.9l10.3,30.8H98.9z M87.9,297.6h7.4l-0.3-1.1
			c-0.9-3-1.6-5.5-2.2-7.6c-0.6-2.1-0.9-3.5-1-4.1l-0.2-0.9c-0.2,1.7-1.4,5.9-3.4,12.6L87.9,297.6z"/>
		<path class="st0" d="M124.2,278.8h10.6c3.4,0,6.2,1,8.3,2.9c2.1,1.9,3.2,4.4,3.2,7.3c0,3.4-1.1,6-3.3,7.9
			c-2.2,1.9-4.9,2.8-8.2,2.8h-3.6v10h-7V278.8z M131.2,294.1h2.3c3.7,0,5.6-1.7,5.6-5.1c0-3.1-1.7-4.6-5.2-4.6h-2.7V294.1z"/>
		<path class="st0" d="M171.1,309.6l-1.9-6.3h-10.8l-1.9,6.3h-7.4l10.3-30.8h8.9l10.3,30.8H171.1z M160.1,297.6h7.4l-0.3-1.1
			c-0.9-3-1.6-5.5-2.2-7.6c-0.6-2.1-0.9-3.5-1-4.1l-0.2-0.9c-0.2,1.7-1.4,5.9-3.4,12.6L160.1,297.6z"/>
		<path class="st0" d="M204.3,278.8v5.7h-7.5v25.2h-7.1v-25.2h-7.5v-5.7H204.3z"/>
		<path class="st0" d="M216.9,304H229v5.6h-19.2v-30.8h19v5.6h-11.9v7h10.6v5.6h-10.6V304z"/>
		<path class="st0" d="M242.9,303.4h11.4v6.2h-18.4v-30.8h7V303.4z"/>
	</g>
</g>
</svg>
